<svg width="30" height="26" viewBox="0 0 30 26" fill="none" xmlns="http://www.w3.org/2000/svg">
<g filter="url(#filter0_d_3_21)">
<path d="M28.125 3.49999L25.3125 3.96874L27.1875 1.62499L23.9062 2.56249C19.6875 -2.12501 13.125 3.03124 15 7.24999C7.5 7.24999 3.75 1.62499 3.75 1.62499C3.75 1.62499 0.9375 5.84374 5.625 9.12499L2.8125 8.18749C2.8125 11 4.6875 12.875 7.96875 13.8125H4.6875C6.5625 17.5625 9.84375 17.5625 9.84375 17.5625C9.84375 17.5625 7.03125 19.9062 1.875 19.9062C17.3438 27.4062 26.7188 13.3437 25.3125 5.84374L28.125 3.49999Z" fill="white"/>
</g>
<defs>
<filter id="filter0_d_3_21" x="-2.125" y="0.703522" width="34.25" height="29.3402" filterUnits="userSpaceOnUse" color-interpolation-filters="sRGB">
<feFlood flood-opacity="0" result="BackgroundImageFix"/>
<feColorMatrix in="SourceAlpha" type="matrix" values="0 0 0 0 0 0 0 0 0 0 0 0 0 0 0 0 0 0 127 0" result="hardAlpha"/>
<feOffset dy="4"/>
<feGaussianBlur stdDeviation="2"/>
<feComposite in2="hardAlpha" operator="out"/>
<feColorMatrix type="matrix" values="0 0 0 0 0 0 0 0 0 0 0 0 0 0 0 0 0 0 0.25 0"/>
<feBlend mode="normal" in2="BackgroundImageFix" result="effect1_dropShadow_3_21"/>
<feBlend mode="normal" in="SourceGraphic" in2="effect1_dropShadow_3_21" result="shape"/>
</filter>
</defs>
</svg>
